<svg xmlns="http://www.w3.org/2000/svg" version="1.1" xmlns:xlink="http://www.w3.org/1999/xlink" width="512" height="512" x="0" y="0" viewBox="0 0 512 512" style="enable-background:new 0 0 512 512" xml:space="preserve" class=""><g><path d="M502.628 278.627 389.25 392.005c-6.249 6.249-14.438 9.373-22.628 9.373s-16.379-3.124-22.628-9.373c-12.496-12.497-12.496-32.758 0-45.255L402.745 288H32c-17.673 0-32-14.327-32-32s14.327-32 32-32h370.745l-58.751-58.75c-12.496-12.497-12.496-32.758 0-45.255 12.498-12.497 32.758-12.497 45.256 0l113.378 113.378c12.496 12.496 12.496 32.758 0 45.254z" fill="#000000" opacity="1" data-original="#000000" class=""></path></g></svg>