<svg xmlns="http://www.w3.org/2000/svg" version="1.1" xmlns:xlink="http://www.w3.org/1999/xlink" width="512" height="512" x="0" y="0" viewBox="0 0 67.671 67.671" style="enable-background:new 0 0 512 512" xml:space="preserve" class=""><g><path d="M52.946 23.348H42.834v6h10.112c3.007 0 5.34 1.536 5.34 2.858v26.606c0 1.322-2.333 2.858-5.34 2.858H14.724c-3.007 0-5.34-1.536-5.34-2.858V32.207c0-1.322 2.333-2.858 5.34-2.858h10.11v-6h-10.11c-6.359 0-11.34 3.891-11.34 8.858v26.606c0 4.968 4.981 8.858 11.34 8.858h38.223c6.358 0 11.34-3.891 11.34-8.858V32.207c-.001-4.968-4.982-8.859-11.341-8.859z" fill="#ffffff" opacity="1" data-original="#ffffff" class=""></path><path d="M24.957 14.955a2.99 2.99 0 0 0 2.121-.879l3.756-3.756v30.522a3 3 0 1 0 6 0V10.117l3.959 3.959c.586.586 1.354.879 2.121.879s1.535-.293 2.121-.879a2.998 2.998 0 0 0 0-4.242L36.078.877A2.987 2.987 0 0 0 33.958 0h-.046c-.767 0-1.534.291-2.12.877l-8.957 8.957a2.998 2.998 0 0 0 2.122 5.121z" fill="#ffffff" opacity="1" data-original="#ffffff" class=""></path></g></svg>